<?xml version="1.0" standalone="no"?><!DOCTYPE svg PUBLIC "-//W3C//DTD SVG 1.1//EN" "http://www.w3.org/Graphics/SVG/1.1/DTD/svg11.dtd"><svg t="1521353426660" class="icon" style="" viewBox="0 0 1024 1024" version="1.1" xmlns="http://www.w3.org/2000/svg" p-id="3786" xmlns:xlink="http://www.w3.org/1999/xlink" width="16" height="16"><defs><style type="text/css"></style></defs><path d="M704 512c58.88 0 106.24-47.786667 106.24-106.666667s-47.36-106.666667-106.24-106.666666c-58.88 0-106.666667 47.786667-106.666667 106.666666s47.786667 106.666667 106.666667 106.666667z m-320-42.666667c70.613333 0 127.573333-57.386667 127.573333-128s-56.96-128-127.573333-128c-70.613333 0-128 57.386667-128 128s57.386667 128 128 128z m320 128c-78.293333 0-234.666667 39.253333-234.666667 117.333334V810.666667h469.333334v-96c0-78.08-156.373333-117.333333-234.666667-117.333334z m-320-42.666666c-99.626667 0-298.666667 49.92-298.666667 149.333333v106.666667h298.666667v-96c0-36.266667 14.293333-99.626667 101.12-148.053334C448 558.72 411.946667 554.666667 384 554.666667z" fill="#24BCE5" p-id="3787"></path></svg>