<?xml version="1.0" standalone="no"?><!DOCTYPE svg PUBLIC "-//W3C//DTD SVG 1.1//EN" "http://www.w3.org/Graphics/SVG/1.1/DTD/svg11.dtd"><svg t="1521384048158" class="icon" style="" viewBox="0 0 1024 1024" version="1.1" xmlns="http://www.w3.org/2000/svg" p-id="14823" xmlns:xlink="http://www.w3.org/1999/xlink" width="16" height="16"><defs><style type="text/css"></style></defs><path d="M511.706311 64.021106c-247.272733 0-447.724091 200.453405-447.724091 447.724091 0 247.270686 200.452381 447.724091 447.724091 447.724091s447.724091-200.453405 447.724091-447.724091C959.430402 264.473487 758.978021 64.021106 511.706311 64.021106zM309.137733 661.09469c-2.260483-16.956184-35.042097-295.791773-35.042097-295.791773s-5.65172-24.868387 15.826454-24.868387c21.476127 0 131.123386 0 146.947793 0 15.826454 0 23.73968 24.868387 23.73968 24.868387s5.65172 16.942881 16.956184 16.942881c11.304464 0 169.050184 0 197.309808 0 28.261671 0 28.261671 30.492478-1.12973 30.492478-29.388331 0-275.306206 0-285.48094 0-5.65172 0.563842-18.085914 5.65172-20.911262 23.737634l-38.433334 246.580978C328.919265 683.055864 311.398216 678.04985 309.137733 661.09469zM714.945155 664.947438c0 9.987468-8.094352 18.085914-18.083867 18.085914L362.266767 683.033351c-9.992585 0-18.086937-8.097422-18.086937-18.085914l35.042097-223.406163c0-9.989515 8.096399-18.08796 18.085914-18.08796L731.903386 423.453315c9.989515 0 18.086937 8.098445 18.086937 18.08796L714.945155 664.947438z" p-id="14824" fill="#24BCE5"></path></svg>